<svg width="40" height="40" viewBox="0 0 40 40" fill="none" xmlns="http://www.w3.org/2000/svg">
<g clip-path="url(#clip0_190_137)">
<path d="M20.0002 3.33325C10.7918 3.33325 3.3335 10.7916 3.3335 19.9999C3.3335 29.2083 10.7918 36.6666 20.0002 36.6666C29.2085 36.6666 36.6668 29.2083 36.6668 19.9999C36.6668 10.7916 29.2085 3.33325 20.0002 3.33325ZM20.0002 8.33325C22.7585 8.33325 25.0002 10.5749 25.0002 13.3333C25.0002 16.0999 22.7585 18.3333 20.0002 18.3333C17.2418 18.3333 15.0002 16.0999 15.0002 13.3333C15.0002 10.5749 17.2418 8.33325 20.0002 8.33325ZM20.0002 31.9999C15.8252 31.9999 12.1585 29.8666 10.0002 26.6333C10.0418 23.3249 16.6752 21.4999 20.0002 21.4999C23.3252 21.4999 29.9502 23.3249 30.0002 26.6333C27.8418 29.8666 24.1752 31.9999 20.0002 31.9999Z" fill="white"/>
</g>
<defs>
<clipPath id="clip0_190_137">
<rect width="40" height="40" fill="white"/>
</clipPath>
</defs>
</svg>
