<svg width="36" height="36" viewBox="0 0 36 36" fill="none" xmlns="http://www.w3.org/2000/svg">
    <path d="M36 18c0-9.941-8.059-18-18-18S0 8.059 0 18s8.059 18 18 18 18-8.059 18-18z" fill="#fff"/>
    <path fill-rule="evenodd" clip-rule="evenodd" d="M26.808 18.205c0-.638-.057-1.252-.163-1.841h-8.476v3.481h4.843a4.14 4.14 0 0 1-1.796 2.716v2.259h2.909c1.702-1.567 2.683-3.874 2.683-6.615z" fill="#060922"/>
    <path fill-rule="evenodd" clip-rule="evenodd" d="M18.168 27c2.43 0 4.468-.806 5.957-2.18l-2.909-2.259c-.806.54-1.837.86-3.048.86-2.344 0-4.328-1.584-5.036-3.711h-3.006v2.332A8.996 8.996 0 0 0 18.168 27z" fill="#060922"/>
    <path fill-rule="evenodd" clip-rule="evenodd" d="M13.133 19.71A5.41 5.41 0 0 1 12.85 18c0-.593.103-1.17.283-1.71v-2.332h-3.007A8.997 8.997 0 0 0 9.168 18c0 1.452.348 2.827.958 4.042l3.007-2.332z" fill="#060922"/>
    <path fill-rule="evenodd" clip-rule="evenodd" d="M18.168 12.58c1.322 0 2.508.454 3.44 1.345l2.582-2.58C22.631 9.891 20.594 9 18.168 9a8.996 8.996 0 0 0-8.042 4.958l3.006 2.332c.708-2.127 2.692-3.71 5.036-3.71z" fill="#060922"/>
</svg>
