<svg width="36" height="36" viewBox="0 0 36 36" fill="none" xmlns="http://www.w3.org/2000/svg">
<g clip-path="url(#clip0_190_140)">
<path d="M34.9492 34.9492C34.636 35.2627 34.264 35.5114 33.8546 35.681C33.4451 35.8507 33.0063 35.938 32.5631 35.938C32.1199 35.938 31.6811 35.8507 31.2717 35.681C30.8623 35.5114 30.4903 35.2627 30.177 34.9492L24.2212 28.9935C21.771 30.5617 18.8752 31.5 15.75 31.5C7.0515 31.5 0 24.4485 0 15.75C0 7.0515 7.0515 0 15.75 0C24.4485 0 31.5 7.0515 31.5 15.75C31.5 18.8752 30.5617 21.771 28.9935 24.2212L34.9492 30.177C35.2627 30.4903 35.5114 30.8623 35.681 31.2717C35.8507 31.6811 35.938 32.1199 35.938 32.5631C35.938 33.0063 35.8507 33.4451 35.681 33.8546C35.5114 34.264 35.2627 34.636 34.9492 34.9492ZM15.75 4.5C9.53775 4.5 4.5 9.5355 4.5 15.75C4.5 21.9645 9.53775 27 15.75 27C21.9645 27 27 21.9645 27 15.75C27 9.5355 21.9645 4.5 15.75 4.5Z" fill="white"/>
</g>
<defs>
<clipPath id="clip0_190_140">
<rect width="36" height="36" fill="white"/>
</clipPath>
</defs>
</svg>
