<svg width="36" height="36" viewBox="0 0 36 36" fill="none" xmlns="http://www.w3.org/2000/svg">
    <rect width="36" height="36" rx="18" fill="#fff"/>
    <path d="M18.884 24.3C12.12 24.3 8.261 19.57 8.1 11.7h3.389c.111 5.777 2.61 8.223 4.588 8.728V11.7h3.19v4.982c1.955-.214 4.008-2.485 4.7-4.982h3.191a9.71 9.71 0 0 1-1.528 3.602 9.5 9.5 0 0 1-2.813 2.679 9.807 9.807 0 0 1 3.206 2.603A10.038 10.038 0 0 1 27.9 24.3h-3.512a6.246 6.246 0 0 0-1.894-3.04 6.054 6.054 0 0 0-3.226-1.463V24.3h-.384z" fill="#060922"/>
</svg>
