<svg width="1920" height="5644" viewBox="0 0 1920 5644" fill="none" xmlns="http://www.w3.org/2000/svg">
<circle cx="1629" cy="1524" r="28" stroke="#0E1235" stroke-opacity="0.5" stroke-width="8"/>
<circle cx="1367" cy="726" r="28" stroke="#0E1235" stroke-opacity="0.5" stroke-width="8"/>
<circle cx="1667" cy="2346" r="28" stroke="#0E1235" stroke-opacity="0.5" stroke-width="8"/>
<circle cx="1827" cy="3165" r="28" stroke="#0E1235" stroke-opacity="0.5" stroke-width="8"/>
<line x1="1717.81" y1="637.264" x2="1396.81" y2="842.264" stroke="#0E1235" stroke-opacity="0.5" stroke-width="3"/>
<line x1="1648.81" y1="641.264" x2="1327.81" y2="846.264" stroke="#0E1235" stroke-opacity="0.5" stroke-width="3"/>
<line x1="1345.81" y1="-37.7358" x2="1024.81" y2="167.264" stroke="#0E1235" stroke-opacity="0.5" stroke-width="3"/>
<line x1="1389.81" y1="163.264" x2="1068.81" y2="368.264" stroke="#0E1235" stroke-opacity="0.5" stroke-width="3"/>
<line x1="456.807" y1="-122.736" x2="135.807" y2="82.2642" stroke="#0E1235" stroke-opacity="0.5" stroke-width="3"/>
<line x1="966.807" y1="419.264" x2="645.807" y2="624.264" stroke="#0E1235" stroke-opacity="0.5" stroke-width="3"/>
<line x1="281.807" y1="816.264" x2="-39.1926" y2="1021.26" stroke="#0E1235" stroke-opacity="0.5" stroke-width="3"/>
<line x1="502.807" y1="194.264" x2="181.807" y2="399.264" stroke="#0E1235" stroke-opacity="0.5" stroke-width="3"/>
<line x1="1111.81" y1="1457.26" x2="790.807" y2="1662.26" stroke="#0E1235" stroke-opacity="0.5" stroke-width="3"/>
<line x1="1681.81" y1="2551.26" x2="1360.81" y2="2756.26" stroke="#0E1235" stroke-opacity="0.5" stroke-width="3"/>
<line x1="871.807" y1="2369.26" x2="550.807" y2="2574.26" stroke="#0E1235" stroke-opacity="0.5" stroke-width="3"/>
<line x1="723.807" y1="2869.26" x2="402.807" y2="3074.26" stroke="#0E1235" stroke-opacity="0.5" stroke-width="3"/>
<line x1="540.807" y1="1236.26" x2="219.807" y2="1441.26" stroke="#0E1235" stroke-opacity="0.5" stroke-width="3"/>
<line x1="441.807" y1="1748.26" x2="120.807" y2="1953.26" stroke="#0E1235" stroke-opacity="0.5" stroke-width="3"/>
<line x1="2231.81" y1="1677.26" x2="1910.81" y2="1882.26" stroke="#0E1235" stroke-opacity="0.5" stroke-width="3"/>
<line x1="1902.81" y1="2207.26" x2="1581.81" y2="2412.26" stroke="#0E1235" stroke-opacity="0.5" stroke-width="3"/>
<line x1="1735.81" y1="1445.26" x2="1414.81" y2="1650.26" stroke="#0E1235" stroke-opacity="0.5" stroke-width="3"/>
<circle cx="1266" cy="21" r="28" stroke="#0E1235" stroke-opacity="0.5" stroke-width="8"/>
<circle cx="726" cy="816" r="28" stroke="#0E1235" stroke-opacity="0.5" stroke-width="8"/>
<circle cx="1026" cy="1520" r="28" stroke="#0E1235" stroke-opacity="0.5" stroke-width="8"/>
<circle cx="2.5" cy="2107.5" r="72.5" stroke="#0E1235" stroke-opacity="0.5" stroke-width="2"/>
<circle cx="2.5" cy="2107.5" r="146.5" stroke="#0E1235" stroke-opacity="0.5" stroke-width="2"/>
<circle cx="2.5" cy="2107.5" r="216.5" stroke="#0E1235" stroke-opacity="0.5" stroke-width="2"/>
<circle cx="2.5" cy="2107.5" r="298.5" stroke="#0E1235" stroke-opacity="0.5" stroke-width="2"/>
<circle cx="2.5" cy="2107.5" r="381.5" stroke="#0E1235" stroke-opacity="0.5" stroke-width="2"/>
<circle cx="1951" cy="468" r="76" stroke="#0E1235" stroke-opacity="0.5" stroke-width="2"/>
<circle cx="1951" cy="468" r="162" stroke="#0E1235" stroke-opacity="0.5" stroke-width="2"/>
<circle cx="1951" cy="468" r="252.608" stroke="#0E1235" stroke-opacity="0.5" stroke-width="2"/>
<circle cx="1951" cy="468" r="348.221" stroke="#0E1235" stroke-opacity="0.5" stroke-width="2"/>
<circle cx="1951" cy="468" r="445" stroke="#0E1235" stroke-opacity="0.5" stroke-width="2"/>
<circle cx="1951" cy="468" r="537" stroke="#0E1235" stroke-opacity="0.5" stroke-width="2"/>
<circle cx="1951" cy="468" r="629" stroke="#0E1235" stroke-opacity="0.5" stroke-width="2"/>
<circle cx="358.5" cy="726.5" r="46.9431" stroke="#0E1235" stroke-opacity="0.5" stroke-width="2"/>
<circle cx="358.5" cy="726.5" r="95.2124" stroke="#0E1235" stroke-opacity="0.5" stroke-width="2"/>
<circle cx="358.5" cy="726.5" r="140.873" stroke="#0E1235" stroke-opacity="0.5" stroke-width="2"/>
<circle cx="358.5" cy="726.5" r="194.36" stroke="#0E1235" stroke-opacity="0.5" stroke-width="2"/>
<circle cx="358.5" cy="726.5" r="248.5" stroke="#0E1235" stroke-opacity="0.5" stroke-width="2"/>
<circle cx="572" cy="4069" r="28" transform="rotate(-180 572 4069)" stroke="#0E1235" stroke-opacity="0.5" stroke-width="8"/>
<circle cx="834" cy="4867" r="28" transform="rotate(-180 834 4867)" stroke="#0E1235" stroke-opacity="0.5" stroke-width="8"/>
<circle cx="534" cy="3247" r="28" transform="rotate(-180 534 3247)" stroke="#0E1235" stroke-opacity="0.5" stroke-width="8"/>
<circle cx="374" cy="2428" r="28" transform="rotate(-180 374 2428)" stroke="#0E1235" stroke-opacity="0.5" stroke-width="8"/>
<line x1="483.193" y1="4955.74" x2="804.193" y2="4750.74" stroke="#0E1235" stroke-opacity="0.5" stroke-width="3"/>
<line x1="552.193" y1="4951.74" x2="873.193" y2="4746.74" stroke="#0E1235" stroke-opacity="0.5" stroke-width="3"/>
<line x1="855.193" y1="5630.74" x2="1176.19" y2="5425.74" stroke="#0E1235" stroke-opacity="0.5" stroke-width="3"/>
<line x1="811.193" y1="5429.74" x2="1132.19" y2="5224.74" stroke="#0E1235" stroke-opacity="0.5" stroke-width="3"/>
<line x1="1744.19" y1="5715.74" x2="2065.19" y2="5510.74" stroke="#0E1235" stroke-opacity="0.5" stroke-width="3"/>
<line x1="1234.19" y1="5173.74" x2="1555.19" y2="4968.74" stroke="#0E1235" stroke-opacity="0.5" stroke-width="3"/>
<line x1="1919.19" y1="4776.74" x2="2240.19" y2="4571.74" stroke="#0E1235" stroke-opacity="0.5" stroke-width="3"/>
<line x1="1698.19" y1="5398.74" x2="2019.19" y2="5193.74" stroke="#0E1235" stroke-opacity="0.5" stroke-width="3"/>
<line x1="1089.19" y1="4135.74" x2="1410.19" y2="3930.74" stroke="#0E1235" stroke-opacity="0.5" stroke-width="3"/>
<line x1="519.193" y1="3041.74" x2="840.193" y2="2836.74" stroke="#0E1235" stroke-opacity="0.5" stroke-width="3"/>
<line x1="1329.19" y1="3223.74" x2="1650.19" y2="3018.74" stroke="#0E1235" stroke-opacity="0.5" stroke-width="3"/>
<line x1="1477.19" y1="2723.74" x2="1798.19" y2="2518.74" stroke="#0E1235" stroke-opacity="0.5" stroke-width="3"/>
<line x1="1660.19" y1="4356.74" x2="1981.19" y2="4151.74" stroke="#0E1235" stroke-opacity="0.5" stroke-width="3"/>
<line x1="1759.19" y1="3844.74" x2="2080.19" y2="3639.74" stroke="#0E1235" stroke-opacity="0.5" stroke-width="3"/>
<line x1="-70.8074" y1="2985.74" x2="250.193" y2="2780.74" stroke="#0E1235" stroke-opacity="0.5" stroke-width="3"/>
<line x1="-30.8074" y1="3915.74" x2="290.193" y2="3710.74" stroke="#0E1235" stroke-opacity="0.5" stroke-width="3"/>
<line x1="298.193" y1="3385.74" x2="619.193" y2="3180.74" stroke="#0E1235" stroke-opacity="0.5" stroke-width="3"/>
<line x1="465.193" y1="4147.74" x2="786.193" y2="3942.74" stroke="#0E1235" stroke-opacity="0.5" stroke-width="3"/>
<circle cx="935" cy="5572" r="28" transform="rotate(-180 935 5572)" stroke="#0E1235" stroke-opacity="0.5" stroke-width="8"/>
<circle cx="1475" cy="4777" r="28" transform="rotate(-180 1475 4777)" stroke="#0E1235" stroke-opacity="0.5" stroke-width="8"/>
<circle cx="1175" cy="4073" r="28" transform="rotate(-180 1175 4073)" stroke="#0E1235" stroke-opacity="0.5" stroke-width="8"/>
<circle cx="2198.5" cy="3485.5" r="298.5" transform="rotate(-180 2198.5 3485.5)" stroke="#0E1235" stroke-opacity="0.5" stroke-width="2"/>
<circle cx="2198.5" cy="3485.5" r="381.5" transform="rotate(-180 2198.5 3485.5)" stroke="#0E1235" stroke-opacity="0.5" stroke-width="2"/>
<circle cx="250" cy="5125" r="76" transform="rotate(-180 250 5125)" stroke="#0E1235" stroke-opacity="0.5" stroke-width="2"/>
<circle cx="250" cy="5125" r="162" transform="rotate(-180 250 5125)" stroke="#0E1235" stroke-opacity="0.5" stroke-width="2"/>
<circle cx="250" cy="5125" r="252.608" transform="rotate(-180 250 5125)" stroke="#0E1235" stroke-opacity="0.5" stroke-width="2"/>
<circle cx="250" cy="5125" r="348.221" transform="rotate(-180 250 5125)" stroke="#0E1235" stroke-opacity="0.5" stroke-width="2"/>
<circle cx="250" cy="5125" r="445" transform="rotate(-180 250 5125)" stroke="#0E1235" stroke-opacity="0.5" stroke-width="2"/>
<circle cx="250" cy="5125" r="537" transform="rotate(-180 250 5125)" stroke="#0E1235" stroke-opacity="0.5" stroke-width="2"/>
<circle cx="250" cy="5125" r="629" transform="rotate(-180 250 5125)" stroke="#0E1235" stroke-opacity="0.5" stroke-width="2"/>
<circle cx="1842.5" cy="4866.5" r="46.9431" transform="rotate(-180 1842.5 4866.5)" stroke="#0E1235" stroke-opacity="0.5" stroke-width="2"/>
<circle cx="1842.5" cy="4866.5" r="95.2124" transform="rotate(-180 1842.5 4866.5)" stroke="#0E1235" stroke-opacity="0.5" stroke-width="2"/>
<circle cx="1842.5" cy="4866.5" r="140.873" transform="rotate(-180 1842.5 4866.5)" stroke="#0E1235" stroke-opacity="0.5" stroke-width="2"/>
<circle cx="1842.5" cy="4866.5" r="194.36" transform="rotate(-180 1842.5 4866.5)" stroke="#0E1235" stroke-opacity="0.5" stroke-width="2"/>
<circle cx="1842.5" cy="4866.5" r="248.5" transform="rotate(-180 1842.5 4866.5)" stroke="#0E1235" stroke-opacity="0.5" stroke-width="2"/>
</svg>
